<svg xmlns="http://www.w3.org/2000/svg" xml:space="preserve" style="fill-rule:evenodd;clip-rule:evenodd;stroke-linejoin:round;stroke-miterlimit:2" viewBox="0 0 363 67"><path d="M25.272 51.84q-5.184 0-9.792-2.016t-8.064-5.58-5.436-8.28T0 25.848t1.98-10.08 5.472-8.244T15.66 1.98 25.848 0q5.976 0 11.088 2.304t8.568 6.552l-5.616 5.616q-2.232-3.168-5.976-4.86T25.848 7.92q-5.184 0-9.108 2.268t-6.084 6.3-2.16 9.36 2.196 9.396 5.94 6.372 8.496 2.304q5.04 0 8.676-1.836t5.58-5.472 1.944-8.964l5.184 3.744H24.984v-7.56h24.912v1.152q0 9-3.204 14.976t-8.748 8.928-12.672 2.952M71.496 51.84q-4.68 0-8.46-2.376T57.06 43.02t-2.196-9.108q0-5.112 2.196-9.18t5.976-6.48 8.46-2.412q3.96 0 7.02 1.692t4.86 4.644 1.8 6.696v9.936q0 3.744-1.764 6.696t-4.86 4.644-7.056 1.692m1.296-7.488q4.392 0 7.092-2.952t2.7-7.56q0-3.096-1.224-5.472t-3.42-3.708-5.148-1.332q-2.88 0-5.076 1.332t-3.456 3.708T63 33.84t1.26 5.472 3.456 3.708 5.076 1.332m9.288 6.768v-9.288l1.368-8.424-1.368-8.352V16.56H90v34.56zM117.288 51.84q-3.96 0-7.056-1.692t-4.86-4.644-1.764-6.696v-9.936q0-3.744 1.8-6.696t4.896-4.644 6.984-1.692q4.68 0 8.46 2.412t5.976 6.48 2.196 9.18q0 5.04-2.196 9.108t-5.976 6.444-8.46 2.376M98.784 65.52V16.56h7.92v9.288l-1.368 8.424 1.368 8.352V65.52zm17.208-21.168q2.88 0 5.076-1.332t3.456-3.708 1.26-5.472-1.26-5.472-3.456-3.708-5.076-1.332-5.112 1.332-3.456 3.708-1.224 5.472 1.224 5.472 3.456 3.708 5.112 1.332" style="fill:#f472b6;fill-rule:nonzero"/><path d="M145.368 10.224q-2.016 0-3.348-1.368t-1.332-3.384 1.332-3.384T145.368.72q2.088 0 3.384 1.368t1.296 3.384-1.296 3.384-3.384 1.368" style="fill:#38bdf8"/><path d="M172.152 51.84q-4.392 0-7.812-1.944t-5.328-5.364-1.908-7.884V16.56h7.92v19.728q0 2.52.828 4.284t2.448 2.7 3.852.936q3.456 0 5.292-2.052t1.836-5.868V16.56h7.92v20.088q0 4.536-1.908 7.956T180 49.932t-7.848 1.908M195.192 51.12V16.56h7.92v34.56zm22.968 0V30.528q0-3.456-2.16-5.364t-5.328-1.908q-2.16 0-3.852.864t-2.7 2.484-1.008 3.924l-3.096-1.728q0-3.96 1.728-6.84t4.68-4.5 6.624-1.62 6.624 1.584 4.68 4.464 1.728 6.912v22.32zm22.968 0V30.528q0-3.456-2.16-5.364t-5.328-1.908q-2.088 0-3.816.864t-2.736 2.484-1.008 3.924l-4.464-1.728q.36-3.96 2.304-6.84t5.004-4.5 6.732-1.62q3.744 0 6.768 1.584t4.824 4.464 1.8 6.912v22.32zM275.688 51.84q-3.96 0-7.056-1.692t-4.86-4.644-1.764-6.696v-9.936q0-3.744 1.8-6.696t4.896-4.644 6.984-1.692q4.68 0 8.46 2.412t5.976 6.48 2.196 9.18q0 5.04-2.196 9.108t-5.976 6.444-8.46 2.376m-18.504 13.68V16.56h7.92v9.288l-1.368 8.424 1.368 8.352V65.52zm17.208-21.168q2.88 0 5.076-1.332t3.456-3.708 1.26-5.472-1.26-5.472-3.456-3.708-5.076-1.332-5.112 1.332-3.456 3.708-1.224 5.472 1.224 5.472 3.456 3.708 5.112 1.332M315 51.84q-5.184 0-9.324-2.34t-6.552-6.444-2.412-9.216 2.376-9.18 6.444-6.444 9.036-2.376q4.824 0 8.532 2.232t5.832 6.12 2.124 8.856a14.8 14.8 0 0 1-.108 1.764q-.108.9-.324 1.98h-28.368v-6.48h24.264l-2.952 2.592q-.144-3.168-1.224-5.328t-3.06-3.312-4.86-1.152q-3.024 0-5.256 1.296t-3.456 3.636-1.224 5.58 1.296 5.688 3.672 3.78 5.472 1.332q2.664 0 4.932-.936t3.852-2.736l5.04 5.112q-2.52 2.952-6.12 4.464T315 51.84M337.392 51.12V16.56h7.92v34.56zm7.92-19.224-2.736-1.368q0-6.552 2.916-10.62t8.82-4.068q2.592 0 4.68.936t3.888 3.024l-5.184 5.328q-.936-1.008-2.088-1.44t-2.664-.432q-3.312 0-5.472 2.088t-2.16 6.552" style="fill:#38bdf8;fill-rule:nonzero"/><path d="m140.0373 16.6644 9.997-.1434c-.2855 9.1148-.9272 17.3126-4.4851 26.1092-2.8854 7.1338-6.039 10.2477-6.773 10.9725-5.7952 5.7221-14.9976 8.9243-18.2112 7.8764-.0587-.0192-.1154-.0442-.1741-.0633.4263.0429 1.3167.2012 3.5384-.719 2.8503-1.1804 10.558-5.9048 13.3346-13.1745 1.79-4.687 2.784-9.6735 3.002-19.8897.1005-4.706-.1825-10.0918-.2286-10.9682Z" style="fill:#38bdf8"/></svg>