<?xml version="1.0" encoding="UTF-8" standalone="no"?><!DOCTYPE svg PUBLIC "-//W3C//DTD SVG 1.1//EN" "http://www.w3.org/Graphics/SVG/1.1/DTD/svg11.dtd"><svg width="100%" height="100%" viewBox="0 0 363 77" version="1.1" xmlns="http://www.w3.org/2000/svg" xmlns:xlink="http://www.w3.org/1999/xlink" xml:space="preserve" xmlns:serif="http://www.serif.com/" style="fill-rule:evenodd;clip-rule:evenodd;stroke-linejoin:round;stroke-miterlimit:2;"><path d="M25.272,51.84c-3.456,0 -6.72,-0.672 -9.792,-2.016c-3.072,-1.344 -5.76,-3.204 -8.064,-5.58c-2.304,-2.376 -4.116,-5.136 -5.436,-8.28c-1.32,-3.144 -1.98,-6.516 -1.98,-10.116c0,-3.6 0.66,-6.96 1.98,-10.08c1.32,-3.12 3.144,-5.868 5.472,-8.244c2.328,-2.376 5.064,-4.224 8.208,-5.544c3.144,-1.32 6.54,-1.98 10.188,-1.98c3.984,0 7.68,0.768 11.088,2.304c3.408,1.536 6.264,3.72 8.568,6.552l-5.616,5.616c-1.488,-2.112 -3.48,-3.732 -5.976,-4.86c-2.496,-1.128 -5.184,-1.692 -8.064,-1.692c-3.456,0 -6.492,0.756 -9.108,2.268c-2.616,1.512 -4.644,3.612 -6.084,6.3c-1.44,2.688 -2.16,5.808 -2.16,9.36c0,3.552 0.732,6.684 2.196,9.396c1.464,2.712 3.444,4.836 5.94,6.372c2.496,1.536 5.328,2.304 8.496,2.304c3.36,0 6.252,-0.612 8.676,-1.836c2.424,-1.224 4.284,-3.048 5.58,-5.472c1.296,-2.424 1.944,-5.412 1.944,-8.964l5.184,3.744l-21.528,0l0,-7.56l24.912,0l0,1.152c0,6 -1.068,10.992 -3.204,14.976c-2.136,3.984 -5.052,6.96 -8.748,8.928c-3.696,1.968 -7.92,2.952 -12.672,2.952Z" style="fill:#f472b6;fill-rule:nonzero;"/><path d="M71.496,51.84c-3.12,0 -5.94,-0.792 -8.46,-2.376c-2.52,-1.584 -4.512,-3.732 -5.976,-6.444c-1.464,-2.712 -2.196,-5.748 -2.196,-9.108c0,-3.408 0.732,-6.468 2.196,-9.18c1.464,-2.712 3.456,-4.872 5.976,-6.48c2.52,-1.608 5.34,-2.412 8.46,-2.412c2.64,0 4.98,0.564 7.02,1.692c2.04,1.128 3.66,2.676 4.86,4.644c1.2,1.968 1.8,4.2 1.8,6.696l0,9.936c0,2.496 -0.588,4.728 -1.764,6.696c-1.176,1.968 -2.796,3.516 -4.86,4.644c-2.064,1.128 -4.416,1.692 -7.056,1.692Zm1.296,-7.488c2.928,0 5.292,-0.984 7.092,-2.952c1.8,-1.968 2.7,-4.488 2.7,-7.56c0,-2.064 -0.408,-3.888 -1.224,-5.472c-0.816,-1.584 -1.956,-2.82 -3.42,-3.708c-1.464,-0.888 -3.18,-1.332 -5.148,-1.332c-1.92,0 -3.612,0.444 -5.076,1.332c-1.464,0.888 -2.616,2.124 -3.456,3.708c-0.84,1.584 -1.26,3.408 -1.26,5.472c0,2.064 0.42,3.888 1.26,5.472c0.84,1.584 1.992,2.82 3.456,3.708c1.464,0.888 3.156,1.332 5.076,1.332Zm9.288,6.768l0,-9.288l1.368,-8.424l-1.368,-8.352l0,-8.496l7.92,0l0,34.56l-7.92,0Z" style="fill:#f472b6;fill-rule:nonzero;"/><path d="M117.288,51.84c-2.64,0 -4.992,-0.564 -7.056,-1.692c-2.064,-1.128 -3.684,-2.676 -4.86,-4.644c-1.176,-1.968 -1.764,-4.2 -1.764,-6.696l0,-9.936c0,-2.496 0.6,-4.728 1.8,-6.696c1.2,-1.968 2.832,-3.516 4.896,-4.644c2.064,-1.128 4.392,-1.692 6.984,-1.692c3.12,0 5.94,0.804 8.46,2.412c2.52,1.608 4.512,3.768 5.976,6.48c1.464,2.712 2.196,5.772 2.196,9.18c0,3.36 -0.732,6.396 -2.196,9.108c-1.464,2.712 -3.456,4.86 -5.976,6.444c-2.52,1.584 -5.34,2.376 -8.46,2.376Zm-18.504,13.68l0,-48.96l7.92,0l0,9.288l-1.368,8.424l1.368,8.352l0,22.896l-7.92,0Zm17.208,-21.168c1.92,0 3.612,-0.444 5.076,-1.332c1.464,-0.888 2.616,-2.124 3.456,-3.708c0.84,-1.584 1.26,-3.408 1.26,-5.472c0,-2.064 -0.42,-3.888 -1.26,-5.472c-0.84,-1.584 -1.992,-2.82 -3.456,-3.708c-1.464,-0.888 -3.156,-1.332 -5.076,-1.332c-1.92,0 -3.624,0.444 -5.112,1.332c-1.488,0.888 -2.64,2.124 -3.456,3.708c-0.816,1.584 -1.224,3.408 -1.224,5.472c0,2.064 0.408,3.888 1.224,5.472c0.816,1.584 1.968,2.82 3.456,3.708c1.488,0.888 3.192,1.332 5.112,1.332Z" style="fill:#f472b6;fill-rule:nonzero;"/><path d="M145.368,10.224c-1.344,0 -2.46,-0.456 -3.348,-1.368c-0.888,-0.912 -1.332,-2.04 -1.332,-3.384c0,-1.344 0.444,-2.472 1.332,-3.384c0.888,-0.912 2.004,-1.368 3.348,-1.368c1.392,0 2.52,0.456 3.384,1.368c0.864,0.912 1.296,2.04 1.296,3.384c0,1.344 -0.432,2.472 -1.296,3.384c-0.864,0.912 -1.992,1.368 -3.384,1.368Z" style="fill:#38bdf8;"/><path d="M172.152,51.84c-2.928,0 -5.532,-0.648 -7.812,-1.944c-2.28,-1.296 -4.056,-3.084 -5.328,-5.364c-1.272,-2.28 -1.908,-4.908 -1.908,-7.884l0,-20.088l7.92,0l0,19.728c0,1.68 0.276,3.108 0.828,4.284c0.552,1.176 1.368,2.076 2.448,2.7c1.08,0.624 2.364,0.936 3.852,0.936c2.304,0 4.068,-0.684 5.292,-2.052c1.224,-1.368 1.836,-3.324 1.836,-5.868l0,-19.728l7.92,0l0,20.088c0,3.024 -0.636,5.676 -1.908,7.956c-1.272,2.28 -3.036,4.056 -5.292,5.328c-2.256,1.272 -4.872,1.908 -7.848,1.908Z" style="fill:#38bdf8;fill-rule:nonzero;"/><path d="M195.192,51.12l0,-34.56l7.92,0l0,34.56l-7.92,0Zm22.968,0l0,-20.592c0,-2.304 -0.72,-4.092 -2.16,-5.364c-1.44,-1.272 -3.216,-1.908 -5.328,-1.908c-1.44,0 -2.724,0.288 -3.852,0.864c-1.128,0.576 -2.028,1.404 -2.7,2.484c-0.672,1.08 -1.008,2.388 -1.008,3.924l-3.096,-1.728c0,-2.64 0.576,-4.92 1.728,-6.84c1.152,-1.92 2.712,-3.42 4.68,-4.5c1.968,-1.08 4.176,-1.62 6.624,-1.62c2.448,0 4.656,0.528 6.624,1.584c1.968,1.056 3.528,2.544 4.68,4.464c1.152,1.92 1.728,4.224 1.728,6.912l0,22.32l-7.92,0Zm22.968,0l0,-20.592c0,-2.304 -0.72,-4.092 -2.16,-5.364c-1.44,-1.272 -3.216,-1.908 -5.328,-1.908c-1.392,0 -2.664,0.288 -3.816,0.864c-1.152,0.576 -2.064,1.404 -2.736,2.484c-0.672,1.08 -1.008,2.388 -1.008,3.924l-4.464,-1.728c0.24,-2.64 1.008,-4.92 2.304,-6.84c1.296,-1.92 2.964,-3.42 5.004,-4.5c2.04,-1.08 4.284,-1.62 6.732,-1.62c2.496,0 4.752,0.528 6.768,1.584c2.016,1.056 3.624,2.544 4.824,4.464c1.2,1.92 1.8,4.224 1.8,6.912l0,22.32l-7.92,0Z" style="fill:#38bdf8;fill-rule:nonzero;"/><path d="M275.688,51.84c-2.64,0 -4.992,-0.564 -7.056,-1.692c-2.064,-1.128 -3.684,-2.676 -4.86,-4.644c-1.176,-1.968 -1.764,-4.2 -1.764,-6.696l0,-9.936c0,-2.496 0.6,-4.728 1.8,-6.696c1.2,-1.968 2.832,-3.516 4.896,-4.644c2.064,-1.128 4.392,-1.692 6.984,-1.692c3.12,0 5.94,0.804 8.46,2.412c2.52,1.608 4.512,3.768 5.976,6.48c1.464,2.712 2.196,5.772 2.196,9.18c0,3.36 -0.732,6.396 -2.196,9.108c-1.464,2.712 -3.456,4.86 -5.976,6.444c-2.52,1.584 -5.34,2.376 -8.46,2.376Zm-18.504,13.68l0,-48.96l7.92,0l0,9.288l-1.368,8.424l1.368,8.352l0,22.896l-7.92,0Zm17.208,-21.168c1.92,0 3.612,-0.444 5.076,-1.332c1.464,-0.888 2.616,-2.124 3.456,-3.708c0.84,-1.584 1.26,-3.408 1.26,-5.472c0,-2.064 -0.42,-3.888 -1.26,-5.472c-0.84,-1.584 -1.992,-2.82 -3.456,-3.708c-1.464,-0.888 -3.156,-1.332 -5.076,-1.332c-1.92,0 -3.624,0.444 -5.112,1.332c-1.488,0.888 -2.64,2.124 -3.456,3.708c-0.816,1.584 -1.224,3.408 -1.224,5.472c0,2.064 0.408,3.888 1.224,5.472c0.816,1.584 1.968,2.82 3.456,3.708c1.488,0.888 3.192,1.332 5.112,1.332Z" style="fill:#38bdf8;fill-rule:nonzero;"/><path d="M315,51.84c-3.456,0 -6.564,-0.78 -9.324,-2.34c-2.76,-1.56 -4.944,-3.708 -6.552,-6.444c-1.608,-2.736 -2.412,-5.808 -2.412,-9.216c0,-3.408 0.792,-6.468 2.376,-9.18c1.584,-2.712 3.732,-4.86 6.444,-6.444c2.712,-1.584 5.724,-2.376 9.036,-2.376c3.216,0 6.06,0.744 8.532,2.232c2.472,1.488 4.416,3.528 5.832,6.12c1.416,2.592 2.124,5.544 2.124,8.856c0,0.576 -0.036,1.164 -0.108,1.764c-0.072,0.6 -0.18,1.26 -0.324,1.98l-28.368,0l0,-6.48l24.264,0l-2.952,2.592c-0.096,-2.112 -0.504,-3.888 -1.224,-5.328c-0.72,-1.44 -1.74,-2.544 -3.06,-3.312c-1.32,-0.768 -2.94,-1.152 -4.86,-1.152c-2.016,0 -3.768,0.432 -5.256,1.296c-1.488,0.864 -2.64,2.076 -3.456,3.636c-0.816,1.56 -1.224,3.42 -1.224,5.58c0,2.16 0.432,4.056 1.296,5.688c0.864,1.632 2.088,2.892 3.672,3.78c1.584,0.888 3.408,1.332 5.472,1.332c1.776,-0 3.42,-0.312 4.932,-0.936c1.512,-0.624 2.796,-1.536 3.852,-2.736l5.04,5.112c-1.68,1.968 -3.72,3.456 -6.12,4.464c-2.4,1.008 -4.944,1.512 -7.632,1.512Z" style="fill:#38bdf8;fill-rule:nonzero;"/><path d="M337.392,51.12l0,-34.56l7.92,0l0,34.56l-7.92,0Zm7.92,-19.224l-2.736,-1.368c0,-4.368 0.972,-7.908 2.916,-10.62c1.944,-2.712 4.884,-4.068 8.82,-4.068c1.728,0 3.288,0.312 4.68,0.936c1.392,0.624 2.688,1.632 3.888,3.024l-5.184,5.328c-0.624,-0.672 -1.32,-1.152 -2.088,-1.44c-0.768,-0.288 -1.656,-0.432 -2.664,-0.432c-2.208,0 -4.032,0.696 -5.472,2.088c-1.44,1.392 -2.16,3.576 -2.16,6.552Z" style="fill:#38bdf8;fill-rule:nonzero;"/><path d="M148.60122,54.70125c-0.05948,0.08836 -6.57989,10.68476 -23.73108,17.44273c-6.15292,2.42439 -29.26996,10.45766 -51.8945,-5.98624c4.0406,2.34054 19.95236,11.70613 41.91308,4.58534c9.81135,-3.18134 16.34144,-8.62437 17.03948,-9.18599c7.04929,-5.67159 16.31196,-15.9879 16.77016,-16.82969l-0.09713,9.97383Z" style="fill:#f472b6;"/><path d="M141.38318,16.56l7.31517,0c-0.30937,8.48043 -0.8438,24.22653 -9.93725,34.01604c-5.77865,6.22097 -14.96552,8.244 -18.06381,8.88398c2.62499,-1.18809 15.65998,-5.89854 19.07754,-20.97457c0.9935,-4.38267 2.1641,-10.63218 1.60834,-21.92545Z" style="fill:#38bdf8;"/></svg>